<?xml version="1.0" encoding="UTF-8"?>
<svg width="24px" height="24px" viewBox="0 0 24 24" version="1.1" xmlns="http://www.w3.org/2000/svg" xmlns:xlink="http://www.w3.org/1999/xlink">
    <!-- Generator: Sketch 52.3 (67297) - http://www.bohemiancoding.com/sketch -->
    <title>Facebook Icon @1.5x</title>
    <desc>Created with Sketch.</desc>
    <g id="Symbols" stroke="none" stroke-width="1" fill="none" fill-rule="evenodd">
        <g id="Footer" transform="translate(-705.000000, -264.000000)" fill="#B2B2B2">
            <g id="Facebook-Icon-">
                <path d="M719.02,276 L717.72,276 L717.72,280.69 L715.78,280.69 L715.78,276 L714.81,276 L714.81,274.38 L715.78,274.38 L715.78,273.41 C715.78,272.1 716.33,271.31 717.88,271.31 L719.18,271.31 L719.18,272.93 L718.37,272.93 C717.76,272.93 717.72,273.15 717.72,273.57 L717.72,274.38 L719.19,274.38 L719.02,276 L719.02,276 Z M717,264 C710.37,264 705,269.37 705,276 C705,282.63 710.37,288 717,288 C723.63,288 729,282.63 729,276 C729,269.37 723.63,264 717,264 L717,264 Z"></path>
            </g>
        </g>
    </g>
</svg>