<?xml version="1.0" encoding="UTF-8"?>
<svg width="24px" height="24px" viewBox="0 0 24 24" version="1.1" xmlns="http://www.w3.org/2000/svg" xmlns:xlink="http://www.w3.org/1999/xlink">
    <!-- Generator: Sketch 52.3 (67297) - http://www.bohemiancoding.com/sketch -->
    <title>Twitter Icon@1.5x</title>
    <desc>Created with Sketch.</desc>
    <g id="Symbols" stroke="none" stroke-width="1" fill="none" fill-rule="evenodd">
        <g id="Footer" transform="translate(-739.000000, -264.000000)" fill="#B2B2B2">
            <g id="Twitter-Icon">
                <path d="M755.48,273.9 L755.49,274.17 C755.49,276.96 753.36,280.18 749.48,280.18 C748.29,280.18 747.18,279.83 746.24,279.23 C746.41,279.25 746.58,279.26 746.75,279.26 C747.74,279.26 748.65,278.93 749.37,278.36 C748.44,278.34 747.67,277.73 747.4,276.89 C747.53,276.92 747.66,276.93 747.79,276.93 C747.99,276.93 748.17,276.9 748.35,276.86 C747.38,276.66 746.66,275.81 746.66,274.79 L746.66,274.76 C746.94,274.92 747.27,275.01 747.61,275.02 C747.05,274.64 746.67,274 746.67,273.27 C746.67,272.88 746.78,272.52 746.96,272.2 C748,273.48 749.56,274.32 751.31,274.41 C751.28,274.26 751.26,274.09 751.26,273.93 C751.26,272.76 752.2,271.82 753.37,271.82 C753.98,271.82 754.52,272.07 754.91,272.48 C755.39,272.39 755.84,272.21 756.25,271.97 C756.09,272.47 755.76,272.88 755.32,273.14 C755.75,273.09 756.16,272.98 756.53,272.81 C756.25,273.23 755.89,273.6 755.48,273.9 L755.48,273.9 Z M751,264 C744.37,264 739,269.37 739,276 C739,282.63 744.37,288 751,288 C757.63,288 763,282.63 763,276 C763,269.37 757.63,264 751,264 L751,264 Z"></path>
            </g>
        </g>
    </g>
</svg>