<svg xmlns="http://www.w3.org/2000/svg" width="602.578" height="581.291" viewBox="0 0 602.578 581.291">
  <g id="Path_1" data-name="Path 1" transform="translate(151.636 87.364)" fill="#4dd6af" opacity="0.83">
    <path d="M 158.1284637451172 493.4272766113281 C 144.158935546875 493.4272766113281 129.2505493164063 492.7386474609375 113.8173904418945 491.3804931640625 C 97.31062316894531 489.9278869628906 80.61585235595703 487.7405700683594 64.19685363769531 484.8792724609375 C 46.42877578735352 481.7828979492188 29.1137752532959 477.915283203125 12.7328519821167 473.384033203125 C -5.042456150054932 468.467041015625 -21.81191825866699 462.7388000488281 -37.10968780517578 456.3584289550781 C -71.71799468994141 441.9238891601563 -98.95861053466797 424.1741943359375 -118.0749206542969 403.6025085449219 C -123.2727661132813 398.0088806152344 -127.9238433837891 392.1334228515625 -131.8988342285156 386.1392822265625 C -136.0102233886719 379.9395751953125 -139.5098419189453 373.44482421875 -142.300537109375 366.8353576660156 C -145.183837890625 360.00634765625 -147.3892211914063 352.8681335449219 -148.8554534912109 345.6188049316406 C -150.3689880371094 338.1354370117188 -151.1363830566406 330.3276672363281 -151.1363830566406 322.412353515625 C -151.1363830566406 314.5165100097656 -149.9156799316406 305.8174438476563 -147.5082244873047 296.5567321777344 C -145.1786804199219 287.5957336425781 -141.6859893798828 277.9078063964844 -137.1270751953125 267.7620544433594 C -128.4111480712891 248.3648223876953 -115.6526107788086 226.8935852050781 -99.20584106445313 203.9448089599609 C -83.68415069580078 182.2867431640625 -64.98822784423828 159.4544372558594 -43.63753128051758 136.0821228027344 C -23.1913013458252 113.6998901367188 -0.6741483807563782 91.21189117431641 23.28838920593262 69.24281311035156 C 46.75146865844727 47.73166275024414 70.97361755371094 27.28820037841797 95.28215789794922 8.480353355407715 C 119.7252349853516 -10.43156909942627 143.5355377197266 -27.13156890869141 166.0516204833984 -41.15557098388672 C 189.2704620361328 -55.61725997924805 210.5474700927734 -66.87472534179688 229.2917022705078 -74.61510467529297 C 248.9734649658203 -82.74272155761719 265.574462890625 -86.86372375488281 278.6336975097656 -86.86372375488281 C 285.0051574707031 -86.86372375488281 291.4813232421875 -85.84087371826172 297.8822326660156 -83.82349395751953 C 304.1031494140625 -81.86287689208984 310.4010925292969 -78.91664886474609 316.6010131835938 -75.06656646728516 C 328.5343933105469 -67.65610504150391 340.4162292480469 -56.73487854003906 351.9163818359375 -42.60610961914063 C 360.5010070800781 -32.0593376159668 368.9309387207031 -19.64741516113281 376.9720153808594 -5.715184688568115 C 384.7466125488281 7.755430698394775 392.2223815917969 22.75658416748047 399.1916198730469 38.87166213989258 C 405.98876953125 54.58881378173828 412.3377075195313 71.44073486328125 418.0620727539063 88.9593505859375 C 423.7076110839844 106.2368927001953 428.7589416503906 124.2014312744141 433.07568359375 142.3539733886719 C 437.3871459960938 160.4845886230469 440.9709167480469 178.8238220214844 443.7273254394531 196.8621978759766 C 446.5158386230469 215.1106567382813 448.4625549316406 233.0865020751953 449.5133972167969 250.2904357910156 C 450.5887756347656 267.8962097167969 450.7296142578125 284.7702026367188 449.9320678710938 300.4436645507813 C 449.1083984375 316.6311340332031 447.2759399414063 331.6635131835938 444.4856262207031 345.1233520507813 C 442.6409301757813 354.021728515625 440.2921447753906 362.6202087402344 437.5045471191406 370.6798095703125 C 434.7944030761719 378.5155029296875 431.5932312011719 386.0621948242188 427.989990234375 393.1102905273438 C 424.4923095703125 399.951904296875 420.5171508789063 406.5165100097656 416.1749267578125 412.6218872070313 C 411.9671630859375 418.5381164550781 407.2956848144531 424.1905212402344 402.2901611328125 429.4219665527344 C 397.4494018554688 434.481201171875 392.15869140625 439.2905883789063 386.56494140625 443.7165222167969 C 381.1682434082031 447.986572265625 375.3352355957031 452.0216674804688 369.2279968261719 455.7097473144531 C 363.3529357910156 459.2575988769531 357.0548400878906 462.58642578125 350.5086975097656 465.6038208007813 C 344.2338562011719 468.4961242675781 337.5483093261719 471.1864318847656 330.6377868652344 473.6000366210938 C 306.2687683105469 482.1112060546875 278.0225524902344 487.681884765625 244.2849273681641 490.6304321289063 C 214.7540130615234 493.2113647460938 185.5301666259766 493.4272766113281 158.1284637451172 493.4272766113281 Z" stroke="none"/>
    <path d="M 278.6336975097656 -86.36376953125 C 265.6403198242188 -86.36376953125 249.1034698486328 -82.25546264648438 229.4825439453125 -74.15301513671875 C 210.7637634277344 -66.42306518554688 189.511474609375 -55.17837524414063 166.3160095214844 -40.73123168945313 C 143.8141632080078 -26.716064453125 120.0178527832031 -10.02584838867188 95.58808898925781 8.875762939453125 C 71.29054260253906 27.67514038085938 47.07907104492188 48.10952758789063 23.62625122070313 69.61138916015625 C -0.325469970703125 91.57052612304688 -22.83206176757813 114.0480041503906 -43.26837158203125 136.4193115234375 C -64.6058349609375 159.7771606445313 -83.28915405273438 182.5939178466797 -98.79946899414063 204.236083984375 C -115.2268371582031 227.1578521728516 -127.9686889648438 248.6000061035156 -136.6709899902344 267.9669189453125 C -141.2184448242188 278.0872192382813 -144.7018432617188 287.74853515625 -147.0243835449219 296.6825561523438 C -149.421142578125 305.9021606445313 -150.6363830566406 314.5589294433594 -150.6363830566406 322.4122924804688 C -150.6363830566406 330.2943725585938 -149.872314453125 338.06884765625 -148.3653869628906 345.5196838378906 C -146.90576171875 352.7362976074219 -144.7102966308594 359.842529296875 -141.83984375 366.6408386230469 C -139.0612182617188 373.2217712402344 -135.5763854980469 379.6889953613281 -131.4821472167969 385.8628540039063 C -127.5221557617188 391.83447265625 -122.8880004882813 397.6883850097656 -117.7086181640625 403.2620849609375 C -98.64129638671875 423.7811584472656 -71.45913696289063 441.4900817871094 -36.917236328125 455.8968505859375 C -21.63861083984375 462.2693176269531 -4.889068603515625 467.9906921386719 12.86614990234375 472.9020690917969 C 29.23153686523438 477.4290771484375 46.53054809570313 481.2929992675781 64.28268432617188 484.3865966796875 C 80.68785095214844 487.2455444335938 97.36846923828125 489.4309997558594 113.8612365722656 490.8823852539063 C 129.2798461914063 492.2392272949219 144.1734619140625 492.92724609375 158.1284637451172 492.92724609375 C 185.5191650390625 492.92724609375 214.73046875 492.7113952636719 244.2413940429688 490.13232421875 C 277.9370727539063 487.1873779296875 306.1436157226563 481.625244140625 330.4729309082031 473.1279907226563 C 337.3683776855469 470.7196044921875 344.0390014648438 468.035400390625 350.29931640625 465.1496887207031 C 356.8287048339844 462.1400756835938 363.1102294921875 458.8200073242188 368.969482421875 455.2816772460938 C 375.0587768554688 451.6044616699219 380.8743896484375 447.5814514160156 386.2546081542969 443.3243713378906 C 391.8303833007813 438.9126892089844 397.1039428710938 434.1189270019531 401.9288330078125 429.0762939453125 C 406.9176940917969 423.8622436523438 411.5736083984375 418.2286987304688 415.7673950195313 412.3320617675781 C 420.0956115722656 406.2464599609375 424.0580749511719 399.7027587890625 427.5447082519531 392.8826904296875 C 431.1373901367188 385.8553161621094 434.3294067382813 378.3301391601563 437.0319213867188 370.5163879394531 C 439.8125610351563 362.4769287109375 442.1556396484375 353.8992919921875 443.9960021972656 345.0218505859375 C 446.7810668945313 331.5870666503906 448.6102294921875 316.5802307128906 449.4327087402344 300.4183044433594 C 450.2293090820313 284.7633666992188 450.0885620117188 267.9081420898438 449.0142211914063 250.3209991455078 C 447.9643859863281 233.1320037841797 446.0192260742188 215.1713104248047 443.2330017089844 196.9376983642578 C 440.4786376953125 178.9127655029297 436.8975524902344 160.5870819091797 432.5891723632813 142.4696044921875 C 428.275634765625 124.3303833007813 423.2280883789063 106.379150390625 417.5867919921875 89.11468505859375 C 411.8671569824219 71.61062622070313 405.523681640625 54.77316284179688 398.7326965332031 39.07015991210938 C 391.7710876464844 22.97262573242188 384.3040161132813 7.98876953125 376.5389404296875 -5.465301513671875 C 368.5111694335938 -19.37454223632813 360.0964660644531 -31.76431274414063 351.5286254882813 -42.29052734375 C 340.0635375976563 -56.37615966796875 328.223388671875 -67.26068115234375 316.3372497558594 -74.641845703125 C 310.1727600097656 -78.46990966796875 303.9129943847656 -81.39862060546875 297.73193359375 -83.3466796875 C 291.3796997070313 -85.34869384765625 284.9541625976563 -86.36376953125 278.6336975097656 -86.36376953125 M 278.6336975097656 -87.36376953125 C 386.7621459960938 -87.36376953125 475.1014709472656 199.9020690917969 444.9751586914063 345.224853515625 C 414.8487854003906 490.5475463867188 266.2570190429688 493.92724609375 158.1284637451172 493.92724609375 C 50 493.92724609375 -151.6363830566406 452.145751953125 -151.6363830566406 322.4122924804688 C -151.6363830566406 192.6789245605469 170.5052337646484 -87.36376953125 278.6336975097656 -87.36376953125 Z" stroke="none" fill="#707070"/>
  </g>
</svg>
